<svg width="90" height="26" viewBox="0 0 90 26" fill="none" xmlns="http://www.w3.org/2000/svg">
<path d="M16.394 3.84998H10.29V21H6.52398V3.84998H0.419983V0.755983H16.394V3.84998Z" fill="#F5F9FC"/>
<path d="M18.9426 9.12798C19.3906 8.26932 19.9226 7.59732 20.5386 7.11198C21.1546 6.61732 21.8826 6.36998 22.7226 6.36998C23.3853 6.36998 23.9173 6.51465 24.3186 6.80398L24.0946 9.39398C24.048 9.56198 23.978 9.68332 23.8846 9.75798C23.8006 9.82332 23.684 9.85598 23.5346 9.85598C23.3946 9.85598 23.1846 9.83265 22.9046 9.78598C22.634 9.73932 22.368 9.71598 22.1066 9.71598C21.724 9.71598 21.3833 9.77198 21.0846 9.88398C20.786 9.99598 20.5153 10.1593 20.2726 10.374C20.0393 10.5793 19.8293 10.8313 19.6426 11.13C19.4653 11.4287 19.2973 11.7693 19.1386 12.152V21H15.6806V6.63598H17.7106C18.0653 6.63598 18.3126 6.70132 18.4526 6.83198C18.5926 6.95332 18.686 7.17732 18.7326 7.50398L18.9426 9.12798Z" fill="#F5F9FC"/>
<path d="M33.5225 14.868C32.5239 14.9147 31.6839 15.0033 31.0025 15.134C30.3212 15.2553 29.7752 15.414 29.3645 15.61C28.9539 15.806 28.6599 16.0347 28.4825 16.296C28.3052 16.5573 28.2165 16.842 28.2165 17.15C28.2165 17.7567 28.3939 18.1907 28.7485 18.452C29.1125 18.7133 29.5839 18.844 30.1625 18.844C30.8719 18.844 31.4832 18.718 31.9965 18.466C32.5192 18.2047 33.0279 17.8127 33.5225 17.29V14.868ZM25.5985 8.63798C27.2505 7.12598 29.2385 6.36998 31.5625 6.36998C32.4025 6.36998 33.1539 6.50998 33.8165 6.78998C34.4792 7.06065 35.0392 7.44332 35.4965 7.93798C35.9539 8.42332 36.2992 9.00665 36.5325 9.68798C36.7752 10.3693 36.8965 11.116 36.8965 11.928V21H35.3285C35.0019 21 34.7499 20.9533 34.5725 20.86C34.3952 20.7573 34.2552 20.5567 34.1525 20.258L33.8445 19.222C33.4805 19.5487 33.1259 19.838 32.7805 20.09C32.4352 20.3327 32.0759 20.538 31.7025 20.706C31.3292 20.874 30.9279 21 30.4985 21.084C30.0785 21.1773 29.6119 21.224 29.0985 21.224C28.4919 21.224 27.9319 21.1447 27.4185 20.986C26.9052 20.818 26.4619 20.5707 26.0885 20.244C25.7152 19.9173 25.4259 19.5113 25.2205 19.026C25.0152 18.5407 24.9125 17.976 24.9125 17.332C24.9125 16.968 24.9732 16.6087 25.0945 16.254C25.2159 15.89 25.4119 15.5447 25.6825 15.218C25.9625 14.8913 26.3219 14.5833 26.7605 14.294C27.1992 14.0046 27.7359 13.7527 28.3705 13.538C29.0145 13.3233 29.7612 13.1507 30.6105 13.02C31.4599 12.88 32.4305 12.796 33.5225 12.768V11.928C33.5225 10.9667 33.3172 10.2573 32.9065 9.79998C32.4959 9.33332 31.9032 9.09998 31.1285 9.09998C30.5685 9.09998 30.1019 9.16532 29.7285 9.29598C29.3645 9.42665 29.0425 9.57598 28.7625 9.74398C28.4825 9.90265 28.2259 10.0473 27.9925 10.178C27.7685 10.3087 27.5165 10.374 27.2365 10.374C26.9939 10.374 26.7885 10.3133 26.6205 10.192C26.4525 10.0613 26.3172 9.91198 26.2145 9.74398L25.5985 8.63798Z" fill="#F5F9FC"/>
<path d="M52.7752 6.63598L47.0772 21H43.9412L38.2432 6.63598H41.0992C41.3605 6.63598 41.5752 6.69665 41.7432 6.81798C41.9205 6.93932 42.0372 7.09332 42.0932 7.27998L44.8652 14.952C45.0145 15.4 45.1452 15.8387 45.2572 16.268C45.3692 16.6973 45.4672 17.1267 45.5512 17.556C45.6445 17.1267 45.7472 16.6973 45.8592 16.268C45.9712 15.8387 46.1065 15.4 46.2652 14.952L49.0932 7.27998C49.1585 7.09332 49.2752 6.93932 49.4432 6.81798C49.6112 6.69665 49.8118 6.63598 50.0452 6.63598H52.7752Z" fill="#F5F9FC"/>
<path d="M63.4346 12.166C63.4346 11.718 63.3693 11.298 63.2386 10.906C63.1173 10.5047 62.9306 10.1547 62.6786 9.85598C62.4266 9.55732 62.1046 9.32398 61.7126 9.15598C61.33 8.97865 60.882 8.88998 60.3686 8.88998C59.37 8.88998 58.5813 9.17465 58.0026 9.74398C57.4333 10.3133 57.0693 11.1207 56.9106 12.166H63.4346ZM56.8406 14.252C56.8966 14.9893 57.0273 15.6287 57.2326 16.17C57.438 16.702 57.7086 17.1453 58.0446 17.5C58.3806 17.8453 58.7773 18.1067 59.2346 18.284C59.7013 18.452 60.2146 18.536 60.7746 18.536C61.3346 18.536 61.8153 18.4707 62.2166 18.34C62.6273 18.2093 62.982 18.0647 63.2806 17.906C63.5886 17.7473 63.8546 17.6027 64.0786 17.472C64.312 17.3413 64.536 17.276 64.7506 17.276C65.04 17.276 65.2546 17.3833 65.3946 17.598L66.3886 18.858C66.006 19.306 65.5766 19.684 65.1006 19.992C64.6246 20.2907 64.1253 20.5333 63.6026 20.72C63.0893 20.8973 62.562 21.0233 62.0206 21.098C61.4886 21.1727 60.9706 21.21 60.4666 21.21C59.468 21.21 58.5393 21.0467 57.6806 20.72C56.822 20.384 56.0753 19.894 55.4406 19.25C54.806 18.5967 54.3066 17.794 53.9426 16.842C53.5786 15.8807 53.3966 14.77 53.3966 13.51C53.3966 12.53 53.5553 11.6107 53.8726 10.752C54.19 9.88398 54.6426 9.13265 55.2306 8.49798C55.828 7.85398 56.5513 7.34532 57.4006 6.97198C58.2593 6.59865 59.2253 6.41198 60.2986 6.41198C61.204 6.41198 62.0393 6.55665 62.8046 6.84598C63.57 7.13532 64.228 7.55998 64.7786 8.11998C65.3293 8.67065 65.7586 9.35198 66.0666 10.164C66.384 10.9667 66.5426 11.886 66.5426 12.922C66.5426 13.4447 66.4866 13.7993 66.3746 13.986C66.2626 14.1633 66.048 14.252 65.7306 14.252H56.8406Z" fill="#F5F9FC"/>
<path d="M72.6377 0.195984V21H69.1797V0.195984H72.6377Z" fill="#F5F9FC"/>
<path d="M89.131 6.63598L81.305 24.948C81.2023 25.1907 81.067 25.3727 80.899 25.494C80.7403 25.6247 80.493 25.69 80.157 25.69H77.581L80.269 19.922L74.459 6.63598H77.497C77.7677 6.63598 77.9777 6.70132 78.127 6.83198C78.2857 6.96265 78.4023 7.11198 78.477 7.27998L81.529 14.728C81.6317 14.98 81.7156 15.232 81.781 15.484C81.8556 15.736 81.9256 15.9927 81.991 16.254C82.075 15.9927 82.159 15.736 82.243 15.484C82.327 15.2227 82.4203 14.966 82.523 14.714L85.407 7.27998C85.4816 7.09332 85.603 6.93932 85.771 6.81798C85.9483 6.69665 86.1443 6.63598 86.359 6.63598H89.131Z" fill="#F5F9FC"/>
</svg>
