<svg width="70" height="70" viewBox="0 0 70 70" fill="none" xmlns="http://www.w3.org/2000/svg">
<path fill-rule="evenodd" clip-rule="evenodd" d="M35 70C54.33 70 70 54.33 70 35C70 15.67 54.33 0 35 0C15.67 0 0 15.67 0 35C0 54.33 15.67 70 35 70Z" fill="#F5F9FC"/>
<path fill-rule="evenodd" clip-rule="evenodd" d="M47 44.75C47 45.578 46.175 47 45.347 47H35V29H45.347C46.175 29 47 28.922 47 29.75V44.75ZM32 44.519L29 40.8275V23.8565L32 27.371V44.519ZM26 41H24.347C23.5175 41 23 39.578 23 38.75V23.75C23 22.922 23.5175 23 24.347 23H26V41ZM46.847 26H35.351C34.4735 26 33.6395 25.241 33.0695 24.5735L29.7455 20.8655C29.1755 20.198 28.3415 20 27.4625 20H22.847C21.1895 20 20 20.5925 20 22.25V40.25C20 41.9075 21.1895 44 22.847 44H25.5425C26.4455 44 27.3005 44.0315 27.8705 44.7335L30.9455 48.7055C31.5155 49.406 32.3705 50 33.2735 50H46.847C48.503 50 50 47.9075 50 46.25V28.25C50 26.5925 48.503 26 46.847 26V26Z" fill="#304659"/>
</svg>
