<svg width="70" height="70" viewBox="0 0 70 70" fill="none" xmlns="http://www.w3.org/2000/svg">
<path fill-rule="evenodd" clip-rule="evenodd" d="M35 70C54.33 70 70 54.33 70 35C70 15.67 54.33 0 35 0C15.67 0 0 15.67 0 35C0 54.33 15.67 70 35 70Z" fill="#F5F9FC"/>
<path fill-rule="evenodd" clip-rule="evenodd" d="M34.5 47C31.767 47 27 36.5135 27 30.5C27 26.3645 30.3645 23 34.5 23C38.6355 23 42 26.3645 42 30.5C42 36.5135 37.233 47 34.5 47M34.5 20C28.701 20 24 24.701 24 30.5C24 36.299 28.701 50 34.5 50C40.299 50 45 36.299 45 30.5C45 24.701 40.299 20 34.5 20M34.5 32.9525C33.6735 32.9525 33 32.2805 33 31.4525C33 30.626 33.6735 29.9525 34.5 29.9525C35.3265 29.9525 36 30.626 36 31.4525C36 32.2805 35.3265 32.9525 34.5 32.9525M34.5 26.9525C32.0145 26.9525 30 28.9685 30 31.4525C30 33.938 32.0145 35.9525 34.5 35.9525C36.9855 35.9525 39 33.938 39 31.4525C39 28.9685 36.9855 26.9525 34.5 26.9525" fill="#304659"/>
</svg>
