<svg width="336" height="49" viewBox="0 0 336 49" fill="none" xmlns="http://www.w3.org/2000/svg">
<g filter="url(#filter0_d_3306_2)">
<path d="M14.352 40.32C12.5173 40.32 10.8533 40.128 9.36 39.744C7.90933 39.36 6.75733 38.7413 5.904 37.888C5.05067 36.992 4.624 35.7973 4.624 34.304V0.32H10.128V32.512C10.128 33.1093 10.2347 33.6853 10.448 34.24C10.704 34.752 11.1307 35.1787 11.728 35.52C12.368 35.8187 13.2427 35.968 14.352 35.968C15.504 35.968 16.3787 35.8187 16.976 35.52C17.616 35.1787 18.0427 34.752 18.256 34.24C18.4693 33.6853 18.576 33.1093 18.576 32.512V0.32H24.08V34.304C24.08 35.7973 23.6533 36.992 22.8 37.888C21.9467 38.7413 20.7733 39.36 19.28 39.744C17.8293 40.128 16.1867 40.32 14.352 40.32ZM40.6395 40.32C38.4635 40.32 36.6288 40.1067 35.1355 39.68C33.6848 39.2107 32.5755 38.4853 31.8075 37.504C31.0822 36.5227 30.7195 35.2427 30.7195 33.664V6.912C30.7195 4.224 31.5515 2.41066 33.2155 1.472C34.8795 0.490665 37.3328 0 40.5755 0C43.6902 0 46.0795 0.490665 47.7435 1.472C49.4075 2.45333 50.2395 4.288 50.2395 6.976V13.184L44.7355 13.504V8C44.7355 6.54933 44.3942 5.61066 43.7115 5.184C43.0715 4.71467 42.0475 4.48 40.6395 4.48C39.2315 4.48 38.1435 4.71467 37.3755 5.184C36.6075 5.61066 36.2235 6.528 36.2235 7.936V32.832C36.2235 33.6853 36.3942 34.3253 36.7355 34.752C37.1195 35.136 37.6315 35.4133 38.2715 35.584C38.9542 35.712 39.7648 35.776 40.7035 35.776C41.5995 35.776 42.3462 35.712 42.9435 35.584C43.5835 35.4133 44.0742 35.136 44.4155 34.752C44.7568 34.3253 44.9275 33.6853 44.9275 32.832V23.296H39.6795L40.0635 18.688H50.2395V33.664C50.2395 35.2427 49.8555 36.5227 49.0875 37.504C48.3622 38.4853 47.2742 39.2107 45.8235 39.68C44.4155 40.1067 42.6875 40.32 40.6395 40.32ZM56.955 0.32H62.459V35.712H74.555V40H56.955V0.32ZM96.7095 4.672H89.7975V0.32H109.19V4.672H102.214V40H96.7095V4.672ZM112.385 40V9.92H116.737L117.249 13.056C117.931 11.904 118.827 11.0293 119.937 10.432C121.046 9.83467 122.198 9.536 123.393 9.536C124.459 9.536 125.27 9.6 125.825 9.728C126.422 9.81333 126.934 9.96267 127.361 10.176L127.105 14.848C126.593 14.6773 125.995 14.528 125.312 14.4C124.673 14.272 123.883 14.208 122.945 14.208C121.707 14.208 120.619 14.5493 119.681 15.232C118.742 15.9147 118.102 16.9173 117.76 18.24V40H112.385ZM139.649 40C137.516 40 135.916 39.68 134.849 39.04C133.825 38.4 133.143 37.6107 132.801 36.672C132.46 35.7333 132.289 34.7947 132.289 33.856V9.92H137.665V31.552C137.665 33.0027 138.028 34.048 138.753 34.688C139.479 35.328 140.567 35.648 142.017 35.648H146.369V9.92H151.745V40H139.649ZM168.419 40.256C165.774 40.256 163.769 39.9147 162.403 39.232C161.038 38.5493 160.121 37.6533 159.651 36.544C159.182 35.4347 158.947 34.2613 158.947 33.024V16.832C158.947 15.552 159.182 14.3787 159.651 13.312C160.163 12.2027 161.102 11.3067 162.467 10.624C163.875 9.94133 165.945 9.6 168.675 9.6C171.193 9.6 173.155 9.94133 174.563 10.624C175.971 11.264 176.953 12.1173 177.507 13.184C178.105 14.2507 178.403 15.4453 178.403 16.768V21.376L173.027 21.888V17.728C173.027 16.5333 172.665 15.5733 171.939 14.848C171.214 14.08 170.126 13.696 168.675 13.696C167.267 13.696 166.179 14.08 165.411 14.848C164.686 15.5733 164.323 16.5333 164.323 17.728V32C164.323 33.1947 164.686 34.1547 165.411 34.88C166.137 35.5627 167.118 35.904 168.355 35.904C169.977 35.904 171.15 35.5413 171.875 34.816C172.643 34.0907 173.027 33.0453 173.027 31.68V28.096L178.403 27.648V32.576C178.403 33.984 178.105 35.2853 177.507 36.48C176.953 37.632 175.95 38.5493 174.499 39.232C173.049 39.9147 171.022 40.256 168.419 40.256ZM185.372 40V0H190.748V40H185.372ZM200.092 40L191.9 26.688H188.508V22.592H191.9L199.516 9.152L204.444 11.008L196.7 24.128L206.236 40H200.092ZM231.601 40.384C229.723 40.3413 228.017 40.192 226.481 39.936C224.945 39.68 223.707 39.1893 222.769 38.464C221.873 37.696 221.424 36.6293 221.424 35.264V26.56L226.929 25.92V33.024C226.929 33.9627 227.227 34.688 227.825 35.2C228.465 35.712 229.617 35.968 231.281 35.968C232.39 35.968 233.243 35.84 233.841 35.584C234.438 35.328 234.843 34.944 235.057 34.432C235.27 33.8773 235.377 33.1947 235.377 32.384V27.456C235.377 26.1333 235.057 25.024 234.417 24.128C233.819 23.232 232.817 22.5707 231.409 22.144L226.737 20.8C224.859 20.2027 223.494 19.456 222.641 18.56C221.83 17.6213 221.424 16.1493 221.424 14.144V6.336C221.424 4.50133 221.873 3.136 222.769 2.24C223.665 1.344 224.859 0.746666 226.353 0.447998C227.889 0.149333 229.617 0 231.537 0C233.329 0 234.929 0.149333 236.337 0.447998C237.745 0.746666 238.854 1.28 239.665 2.048C240.475 2.77333 240.881 3.79733 240.881 5.12V13.824L235.377 14.656V7.744C235.377 6.37867 235.099 5.46133 234.545 4.992C233.99 4.52266 232.902 4.288 231.281 4.288C229.702 4.288 228.571 4.58666 227.889 5.184C227.249 5.73867 226.929 6.82667 226.929 8.448V12.8C226.929 13.9093 227.206 14.8693 227.76 15.68C228.358 16.4907 229.211 17.0667 230.321 17.408L235.312 18.944C237.318 19.5413 238.747 20.352 239.601 21.376C240.454 22.3573 240.881 23.8293 240.881 25.792V33.856C240.881 35.6907 240.475 37.0773 239.665 38.016C238.897 38.912 237.809 39.5307 236.401 39.872C235.035 40.1707 233.435 40.3413 231.601 40.384ZM252.535 40C250.913 40 249.74 39.7653 249.015 39.296C248.332 38.784 247.905 37.9307 247.735 36.736C247.564 35.5413 247.479 33.8773 247.479 31.744V16.64C247.479 14.976 247.671 13.6533 248.055 12.672C248.439 11.6907 249.143 10.9867 250.167 10.56C251.233 10.1333 252.727 9.92 254.647 9.92H266.935V40H261.559V14.272H255.671C254.732 14.272 254.071 14.4 253.687 14.656C253.303 14.8693 253.068 15.2533 252.983 15.808C252.897 16.3627 252.855 17.1307 252.855 18.112V31.744C252.855 32.896 252.919 33.7493 253.047 34.304C253.175 34.8587 253.409 35.2213 253.751 35.392C254.135 35.5627 254.689 35.648 255.415 35.648H259.959L259.447 40H252.535ZM274.71 0H280.086V40H274.71V0ZM296.769 40.256C294.124 40.256 292.119 39.9147 290.753 39.232C289.388 38.5493 288.471 37.6533 288.001 36.544C287.532 35.4347 287.297 34.2613 287.297 33.024V16.832C287.297 15.552 287.532 14.3787 288.001 13.312C288.513 12.2027 289.452 11.3067 290.817 10.624C292.225 9.94133 294.295 9.6 297.025 9.6C299.543 9.6 301.505 9.94133 302.913 10.624C304.321 11.264 305.303 12.1173 305.857 13.184C306.455 14.2507 306.753 15.4453 306.753 16.768V23.296L301.377 23.616V17.728C301.377 16.5333 301.015 15.5733 300.289 14.848C299.564 14.08 298.476 13.696 297.025 13.696C295.617 13.696 294.529 14.08 293.761 14.848C293.036 15.5733 292.673 16.5333 292.673 17.728V32C292.673 33.1947 293.036 34.1547 293.761 34.88C294.487 35.5627 295.468 35.904 296.705 35.904C298.327 35.904 299.5 35.5413 300.225 34.816C300.993 34.0907 301.377 33.0453 301.377 31.68V29.184L306.753 28.736V32.576C306.753 33.984 306.455 35.2853 305.857 36.48C305.303 37.632 304.3 38.5493 302.849 39.232C301.399 39.9147 299.372 40.256 296.769 40.256ZM288.001 25.792V22.912H306.753V25.792H288.001ZM321.908 40.384C318.793 40.384 316.553 39.7653 315.188 38.528C313.865 37.248 313.204 35.4773 313.204 33.216V29.056L318.004 28.416V32.96C318.004 33.6 318.111 34.2187 318.324 34.816C318.537 35.3707 318.921 35.84 319.476 36.224C320.073 36.5653 320.927 36.736 322.036 36.736C323.316 36.736 324.319 36.48 325.044 35.968C325.812 35.456 326.196 34.4533 326.196 32.96C326.196 31.296 326.004 30.08 325.62 29.312C325.279 28.5013 324.489 27.7973 323.252 27.2C322.911 27.0293 322.484 26.8373 321.972 26.624C321.46 26.368 320.905 26.112 320.308 25.856C319.753 25.6 319.22 25.3653 318.708 25.152C318.196 24.896 317.791 24.6827 317.492 24.512C316.297 23.8293 315.38 23.168 314.74 22.528C314.143 21.888 313.737 21.2053 313.524 20.48C313.311 19.712 313.204 18.8373 313.204 17.856V16.768C313.204 14.2933 313.929 12.48 315.38 11.328C316.831 10.176 319.156 9.6 322.356 9.6C325.513 9.6 327.753 10.1333 329.076 11.2C330.441 12.2667 331.124 13.9947 331.124 16.384V20.352L326.196 20.992V16.832C326.196 15.4667 325.855 14.528 325.172 14.016C324.489 13.504 323.487 13.248 322.164 13.248C320.927 13.248 320.009 13.44 319.412 13.824C318.857 14.208 318.495 14.6987 318.324 15.296C318.153 15.8507 318.068 16.4053 318.068 16.96C318.068 18.368 318.196 19.3707 318.452 19.968C318.751 20.5227 319.327 21.056 320.18 21.568C320.607 21.7813 321.14 22.0587 321.78 22.4C322.463 22.6987 323.209 23.04 324.02 23.424C324.831 23.7653 325.663 24.1707 326.516 24.64C328.223 25.4507 329.417 26.3893 330.1 27.456C330.783 28.48 331.124 29.9733 331.124 31.936V32.768C331.124 35.328 330.463 37.248 329.14 38.528C327.86 39.7653 325.449 40.384 321.908 40.384Z" fill="white"/>
</g>
<defs>
<filter id="filter0_d_3306_2" x="0.624023" y="0" width="334.5" height="48.384" filterUnits="userSpaceOnUse" color-interpolation-filters="sRGB">
<feFlood flood-opacity="0" result="BackgroundImageFix"/>
<feColorMatrix in="SourceAlpha" type="matrix" values="0 0 0 0 0 0 0 0 0 0 0 0 0 0 0 0 0 0 127 0" result="hardAlpha"/>
<feOffset dy="4"/>
<feGaussianBlur stdDeviation="2"/>
<feComposite in2="hardAlpha" operator="out"/>
<feColorMatrix type="matrix" values="0 0 0 0 0 0 0 0 0 0 0 0 0 0 0 0 0 0 0.25 0"/>
<feBlend mode="normal" in2="BackgroundImageFix" result="effect1_dropShadow_3306_2"/>
<feBlend mode="normal" in="SourceGraphic" in2="effect1_dropShadow_3306_2" result="shape"/>
</filter>
</defs>
</svg>
