<svg width="317" height="34" viewBox="0 0 317 34" fill="none" xmlns="http://www.w3.org/2000/svg">
<path d="M13.5 28.5525C14.67 28.5525 15.7125 28.3575 16.6275 27.9675C17.5575 27.5775 18.3375 27.03 18.9675 26.325C19.5975 25.62 20.0775 24.765 20.4075 23.76C20.7525 22.755 20.925 21.63 20.925 20.385V0.899999H26.9775V20.385C26.9775 22.32 26.6625 24.1125 26.0325 25.7625C25.4175 27.3975 24.525 28.815 23.355 30.015C22.2 31.2 20.79 32.13 19.125 32.805C17.46 33.465 15.585 33.795 13.5 33.795C11.4 33.795 9.5175 33.465 7.8525 32.805C6.1875 32.13 4.77 31.2 3.6 30.015C2.445 28.815 1.5525 27.3975 0.9225 25.7625C0.3075 24.1125 0 22.32 0 20.385V0.899999H6.0525V20.3625C6.0525 21.6075 6.2175 22.7325 6.5475 23.7375C6.8925 24.7425 7.38 25.605 8.01 26.325C8.655 27.03 9.435 27.5775 10.35 27.9675C11.28 28.3575 12.33 28.5525 13.5 28.5525Z" fill="white"/>
<path d="M60.6234 17.1225V30.285C58.9734 31.5 57.2109 32.3925 55.3359 32.9625C53.4759 33.5175 51.4809 33.795 49.3509 33.795C46.6959 33.795 44.2884 33.3825 42.1284 32.5575C39.9834 31.7325 38.1459 30.585 36.6159 29.115C35.1009 27.645 33.9309 25.89 33.1059 23.85C32.2809 21.81 31.8684 19.5825 31.8684 17.1675C31.8684 14.7225 32.2659 12.48 33.0609 10.44C33.8559 8.4 34.9809 6.645 36.4359 5.175C37.9059 3.705 39.6834 2.565 41.7684 1.755C43.8534 0.945 46.1934 0.540001 48.7884 0.540001C50.1084 0.540001 51.3384 0.645001 52.4784 0.855C53.6334 1.065 54.6984 1.3575 55.6734 1.7325C56.6634 2.0925 57.5634 2.535 58.3734 3.06C59.1834 3.585 59.9259 4.1625 60.6009 4.7925L58.8684 7.5375C58.5984 7.9725 58.2459 8.2425 57.8109 8.3475C57.3759 8.4375 56.9034 8.325 56.3934 8.01C55.8984 7.725 55.4034 7.44 54.9084 7.155C54.4134 6.87 53.8584 6.6225 53.2434 6.4125C52.6434 6.2025 51.9609 6.03 51.1959 5.895C50.4459 5.76 49.5759 5.6925 48.5859 5.6925C46.9809 5.6925 45.5259 5.9625 44.2209 6.5025C42.9309 7.0425 41.8284 7.815 40.9134 8.82C39.9984 9.825 39.2934 11.0325 38.7984 12.4425C38.3034 13.8525 38.0559 15.4275 38.0559 17.1675C38.0559 19.0275 38.3184 20.6925 38.8434 22.1625C39.3834 23.6175 40.1334 24.855 41.0934 25.875C42.0684 26.88 43.2384 27.6525 44.6034 28.1925C45.9684 28.7175 47.4909 28.98 49.1709 28.98C50.3709 28.98 51.4434 28.8525 52.3884 28.5975C53.3334 28.3425 54.2559 27.9975 55.1559 27.5625V21.6675H51.0609C50.6709 21.6675 50.3634 21.5625 50.1384 21.3525C49.9284 21.1275 49.8234 20.8575 49.8234 20.5425V17.1225H60.6234Z" fill="white"/>
<path d="M85.5123 28.44V33.435H66.4548V0.899999H72.5073V28.44H85.5123Z" fill="white"/>
<path d="M120.776 5.8725H110.966V33.435H104.914V5.8725H95.104V0.899999H120.776V5.8725Z" fill="white"/>
<path d="M124.873 14.355C125.593 12.975 126.448 11.895 127.438 11.115C128.428 10.32 129.598 9.9225 130.948 9.9225C132.013 9.9225 132.868 10.155 133.513 10.62L133.153 14.7825C133.078 15.0525 132.965 15.2475 132.815 15.3675C132.68 15.4725 132.493 15.525 132.253 15.525C132.028 15.525 131.69 15.4875 131.24 15.4125C130.805 15.3375 130.378 15.3 129.958 15.3C129.343 15.3 128.795 15.39 128.315 15.57C127.835 15.75 127.4 16.0125 127.01 16.3575C126.635 16.6875 126.298 17.0925 125.998 17.5725C125.713 18.0525 125.443 18.6 125.188 19.215V33.435H119.63V10.35H122.893C123.463 10.35 123.86 10.455 124.085 10.665C124.31 10.86 124.46 11.22 124.535 11.745L124.873 14.355Z" fill="white"/>
<path d="M156.307 10.35V33.435H152.91C152.175 33.435 151.71 33.0975 151.515 32.4225L151.132 30.5775C150.187 31.5375 149.145 32.3175 148.005 32.9175C146.865 33.5025 145.522 33.795 143.977 33.795C142.717 33.795 141.6 33.585 140.625 33.165C139.665 32.73 138.855 32.1225 138.195 31.3425C137.535 30.5625 137.032 29.64 136.687 28.575C136.357 27.495 136.192 26.31 136.192 25.02V10.35H141.75V25.02C141.75 26.43 142.072 27.525 142.717 28.305C143.377 29.07 144.36 29.4525 145.665 29.4525C146.625 29.4525 147.525 29.2425 148.365 28.8225C149.205 28.3875 150 27.795 150.75 27.045V10.35H156.307Z" fill="white"/>
<path d="M178.355 15.2325C178.19 15.4425 178.025 15.6075 177.86 15.7275C177.71 15.8475 177.485 15.9075 177.185 15.9075C176.9 15.9075 176.623 15.825 176.353 15.66C176.083 15.48 175.76 15.285 175.385 15.075C175.01 14.85 174.56 14.655 174.035 14.49C173.525 14.31 172.888 14.22 172.123 14.22C171.148 14.22 170.293 14.4 169.558 14.76C168.823 15.105 168.208 15.6075 167.713 16.2675C167.233 16.9275 166.873 17.73 166.633 18.675C166.393 19.605 166.273 20.6625 166.273 21.8475C166.273 23.0775 166.4 24.1725 166.655 25.1325C166.925 26.0925 167.308 26.9025 167.803 27.5625C168.298 28.2075 168.898 28.7025 169.603 29.0475C170.308 29.3775 171.103 29.5425 171.988 29.5425C172.873 29.5425 173.585 29.4375 174.125 29.2275C174.68 29.0025 175.145 28.7625 175.52 28.5075C175.895 28.2375 176.218 27.9975 176.488 27.7875C176.773 27.5625 177.088 27.45 177.433 27.45C177.883 27.45 178.22 27.6225 178.445 27.9675L180.043 29.9925C179.428 30.7125 178.76 31.32 178.04 31.815C177.32 32.295 176.57 32.685 175.79 32.985C175.025 33.27 174.23 33.4725 173.405 33.5925C172.595 33.7125 171.785 33.7725 170.975 33.7725C169.55 33.7725 168.208 33.51 166.948 32.985C165.688 32.445 164.585 31.665 163.64 30.645C162.695 29.625 161.945 28.38 161.39 26.91C160.85 25.425 160.58 23.7375 160.58 21.8475C160.58 20.1525 160.82 18.585 161.3 17.145C161.795 15.69 162.515 14.4375 163.46 13.3875C164.405 12.3225 165.575 11.49 166.97 10.89C168.365 10.29 169.97 9.99 171.785 9.99C173.51 9.99 175.018 10.2675 176.308 10.8225C177.613 11.3775 178.783 12.1725 179.818 13.2075L178.355 15.2325Z" fill="white"/>
<path d="M189.084 0V19.1475H190.119C190.494 19.1475 190.787 19.1025 190.997 19.0125C191.222 18.9075 191.447 18.705 191.672 18.405L197.409 11.3175C197.649 11.0025 197.912 10.7625 198.197 10.5975C198.497 10.4325 198.879 10.35 199.344 10.35H204.429L197.252 18.9225C196.742 19.5975 196.187 20.115 195.587 20.475C195.902 20.7 196.179 20.9625 196.419 21.2625C196.674 21.5625 196.914 21.885 197.139 22.23L204.834 33.435H199.817C199.382 33.435 199.007 33.3675 198.692 33.2325C198.377 33.0825 198.114 32.82 197.904 32.445L192.009 23.6925C191.799 23.3475 191.582 23.1225 191.357 23.0175C191.132 22.9125 190.794 22.86 190.344 22.86H189.084V33.435H183.527V0H189.084Z" fill="white"/>
<path d="M236.709 6.8175C236.529 7.1325 236.335 7.365 236.124 7.515C235.929 7.65 235.682 7.7175 235.382 7.7175C235.067 7.7175 234.722 7.605 234.347 7.38C233.987 7.14 233.552 6.8775 233.042 6.5925C232.532 6.3075 231.932 6.0525 231.242 5.8275C230.567 5.5875 229.764 5.4675 228.834 5.4675C227.994 5.4675 227.259 5.5725 226.629 5.7825C225.999 5.9775 225.467 6.255 225.032 6.615C224.612 6.975 224.297 7.41 224.087 7.92C223.877 8.415 223.772 8.9625 223.772 9.5625C223.772 10.3275 223.982 10.965 224.402 11.475C224.837 11.985 225.407 12.42 226.112 12.78C226.817 13.14 227.62 13.4625 228.52 13.7475C229.419 14.0325 230.342 14.34 231.287 14.67C232.232 14.985 233.154 15.36 234.054 15.795C234.954 16.215 235.757 16.755 236.462 17.415C237.167 18.06 237.729 18.855 238.149 19.8C238.584 20.745 238.802 21.8925 238.802 23.2425C238.802 24.7125 238.547 26.0925 238.037 27.3825C237.542 28.6575 236.807 29.775 235.832 30.735C234.872 31.68 233.695 32.43 232.299 32.985C230.904 33.525 229.307 33.795 227.507 33.795C226.472 33.795 225.452 33.69 224.447 33.48C223.442 33.285 222.474 33 221.544 32.625C220.63 32.25 219.767 31.8 218.957 31.275C218.147 30.75 217.427 30.165 216.797 29.52L218.574 26.6175C218.724 26.4075 218.919 26.235 219.16 26.1C219.4 25.95 219.654 25.875 219.924 25.875C220.299 25.875 220.704 26.0325 221.139 26.3475C221.574 26.6475 222.092 26.985 222.692 27.36C223.292 27.735 223.99 28.08 224.785 28.395C225.594 28.695 226.562 28.845 227.687 28.845C229.412 28.845 230.747 28.44 231.692 27.63C232.637 26.805 233.109 25.6275 233.109 24.0975C233.109 23.2425 232.892 22.545 232.457 22.005C232.037 21.465 231.475 21.015 230.77 20.655C230.064 20.28 229.262 19.965 228.362 19.71C227.462 19.455 226.547 19.1775 225.617 18.8775C224.687 18.5775 223.772 18.2175 222.872 17.7975C221.972 17.3775 221.169 16.83 220.464 16.155C219.759 15.48 219.189 14.64 218.754 13.635C218.334 12.615 218.124 11.3625 218.124 9.8775C218.124 8.6925 218.357 7.5375 218.822 6.4125C219.302 5.2875 219.992 4.29 220.892 3.42C221.792 2.55 222.902 1.8525 224.222 1.3275C225.542 0.802501 227.057 0.540001 228.767 0.540001C230.687 0.540001 232.457 0.840001 234.077 1.44C235.697 2.04 237.077 2.88 238.217 3.96L236.709 6.8175Z" fill="white"/>
<path d="M255.092 23.58C253.487 23.655 252.137 23.7975 251.042 24.0075C249.947 24.2025 249.069 24.4575 248.409 24.7725C247.749 25.0875 247.277 25.455 246.992 25.875C246.707 26.295 246.564 26.7525 246.564 27.2475C246.564 28.2225 246.849 28.92 247.419 29.34C248.004 29.76 248.762 29.97 249.692 29.97C250.832 29.97 251.814 29.7675 252.639 29.3625C253.479 28.9425 254.297 28.3125 255.092 27.4725V23.58ZM242.357 13.5675C245.012 11.1375 248.207 9.9225 251.942 9.9225C253.292 9.9225 254.499 10.1475 255.564 10.5975C256.629 11.0325 257.529 11.6475 258.264 12.4425C258.999 13.2225 259.554 14.16 259.929 15.255C260.319 16.35 260.514 17.55 260.514 18.855V33.435H257.994C257.469 33.435 257.064 33.36 256.779 33.21C256.494 33.045 256.269 32.7225 256.104 32.2425L255.609 30.5775C255.024 31.1025 254.454 31.5675 253.899 31.9725C253.344 32.3625 252.767 32.6925 252.167 32.9625C251.567 33.2325 250.922 33.435 250.232 33.57C249.557 33.72 248.807 33.795 247.982 33.795C247.007 33.795 246.107 33.6675 245.282 33.4125C244.457 33.1425 243.744 32.745 243.144 32.22C242.544 31.695 242.079 31.0425 241.749 30.2625C241.419 29.4825 241.254 28.575 241.254 27.54C241.254 26.955 241.352 26.3775 241.547 25.8075C241.742 25.2225 242.057 24.6675 242.492 24.1425C242.942 23.6175 243.519 23.1225 244.224 22.6575C244.929 22.1925 245.792 21.7875 246.812 21.4425C247.847 21.0975 249.047 20.82 250.412 20.61C251.777 20.385 253.337 20.25 255.092 20.205V18.855C255.092 17.31 254.762 16.17 254.102 15.435C253.442 14.685 252.489 14.31 251.244 14.31C250.344 14.31 249.594 14.415 248.994 14.625C248.409 14.835 247.892 15.075 247.442 15.345C246.992 15.6 246.579 15.8325 246.204 16.0425C245.844 16.2525 245.439 16.3575 244.989 16.3575C244.599 16.3575 244.269 16.26 243.999 16.065C243.729 15.855 243.512 15.615 243.347 15.345L242.357 13.5675Z" fill="white"/>
<path d="M271.373 0V33.435H265.816V0H271.373Z" fill="white"/>
<path d="M291.783 19.2375C291.783 18.5175 291.678 17.8425 291.468 17.2125C291.273 16.5675 290.973 16.005 290.568 15.525C290.163 15.045 289.645 14.67 289.015 14.4C288.4 14.115 287.68 13.9725 286.855 13.9725C285.25 13.9725 283.983 14.43 283.053 15.345C282.138 16.26 281.553 17.5575 281.298 19.2375H291.783ZM281.185 22.59C281.275 23.775 281.485 24.8025 281.815 25.6725C282.145 26.5275 282.58 27.24 283.12 27.81C283.66 28.365 284.298 28.785 285.033 29.07C285.783 29.34 286.608 29.475 287.508 29.475C288.408 29.475 289.18 29.37 289.825 29.16C290.485 28.95 291.055 28.7175 291.535 28.4625C292.03 28.2075 292.458 27.975 292.818 27.765C293.193 27.555 293.553 27.45 293.898 27.45C294.363 27.45 294.708 27.6225 294.933 27.9675L296.53 29.9925C295.915 30.7125 295.225 31.32 294.46 31.815C293.695 32.295 292.893 32.685 292.053 32.985C291.228 33.27 290.38 33.4725 289.51 33.5925C288.655 33.7125 287.823 33.7725 287.013 33.7725C285.408 33.7725 283.915 33.51 282.535 32.985C281.155 32.445 279.955 31.6575 278.935 30.6225C277.915 29.5725 277.113 28.2825 276.528 26.7525C275.943 25.2075 275.65 23.4225 275.65 21.3975C275.65 19.8225 275.905 18.345 276.415 16.965C276.925 15.57 277.653 14.3625 278.598 13.3425C279.558 12.3075 280.72 11.49 282.085 10.89C283.465 10.29 285.018 9.99 286.743 9.99C288.198 9.99 289.54 10.2225 290.77 10.6875C292 11.1525 293.058 11.835 293.943 12.735C294.828 13.62 295.518 14.715 296.013 16.02C296.523 17.31 296.778 18.7875 296.778 20.4525C296.778 21.2925 296.688 21.8625 296.508 22.1625C296.328 22.4475 295.983 22.59 295.473 22.59H281.185Z" fill="white"/>
<path d="M315.033 14.85C314.883 15.09 314.726 15.2625 314.561 15.3675C314.396 15.4575 314.186 15.5025 313.931 15.5025C313.661 15.5025 313.368 15.4275 313.053 15.2775C312.753 15.1275 312.401 14.9625 311.996 14.7825C311.591 14.5875 311.126 14.415 310.601 14.265C310.091 14.115 309.483 14.04 308.778 14.04C307.683 14.04 306.821 14.2725 306.191 14.7375C305.576 15.2025 305.268 15.81 305.268 16.56C305.268 17.055 305.426 17.475 305.741 17.82C306.071 18.15 306.498 18.4425 307.023 18.6975C307.563 18.9525 308.171 19.185 308.846 19.395C309.521 19.59 310.203 19.8075 310.893 20.0475C311.598 20.2875 312.288 20.565 312.963 20.88C313.638 21.18 314.238 21.57 314.763 22.05C315.303 22.515 315.731 23.0775 316.046 23.7375C316.376 24.3975 316.541 25.1925 316.541 26.1225C316.541 27.2325 316.338 28.26 315.933 29.205C315.543 30.135 314.958 30.945 314.178 31.635C313.398 32.31 312.431 32.8425 311.276 33.2325C310.136 33.6075 308.816 33.795 307.316 33.795C306.521 33.795 305.741 33.72 304.976 33.57C304.226 33.435 303.498 33.24 302.793 32.985C302.103 32.73 301.458 32.43 300.858 32.085C300.273 31.74 299.756 31.365 299.306 30.96L300.588 28.845C300.753 28.59 300.948 28.395 301.173 28.26C301.398 28.125 301.683 28.0575 302.028 28.0575C302.373 28.0575 302.696 28.155 302.996 28.35C303.311 28.545 303.671 28.755 304.076 28.98C304.481 29.205 304.953 29.415 305.493 29.61C306.048 29.805 306.746 29.9025 307.586 29.9025C308.246 29.9025 308.808 29.8275 309.273 29.6775C309.753 29.5125 310.143 29.3025 310.443 29.0475C310.758 28.7925 310.983 28.5 311.118 28.17C311.268 27.825 311.343 27.4725 311.343 27.1125C311.343 26.5725 311.178 26.13 310.848 25.785C310.533 25.44 310.106 25.14 309.566 24.885C309.041 24.63 308.433 24.405 307.743 24.21C307.068 24 306.371 23.775 305.651 23.535C304.946 23.295 304.248 23.0175 303.558 22.7025C302.883 22.3725 302.276 21.96 301.736 21.465C301.211 20.97 300.783 20.3625 300.453 19.6425C300.138 18.9225 299.981 18.0525 299.981 17.0325C299.981 16.0875 300.168 15.1875 300.543 14.3325C300.918 13.4775 301.466 12.735 302.186 12.105C302.921 11.46 303.828 10.95 304.908 10.575C306.003 10.185 307.263 9.99 308.688 9.99C310.278 9.99 311.726 10.2525 313.031 10.7775C314.336 11.3025 315.423 11.9925 316.293 12.8475L315.033 14.85Z" fill="white"/>
</svg>
